PathFileType	4	(X/Y/Z)	./resultDataOpenSim/trcMotMarkerGrf/sub09/qtm-04-09.trc
DataRate	CameraRate	NumFrames	NumMarkers	Units	OrigDataRate	OrigDataStartFrame	OrigNumFrames
250.000000	250.000000	5	24	m	250.000000	191	508
Frame#	Time	L.Toe.Tip			R.Toe.Tip			L.Ankle.Lat			R.Ankle.Lat			L.Ankle.Med			R.Ankle.Med			L.Heel			R.Heel			L.Knee.Lat			R.Knee.Lat			L.Knee.Med			R.Knee.Med			L.Thigh.Upper			R.Thigh.Upper			L.ASIS			R.ASIS			V.Sacral			L.Acromium			R.Acromium			C7			L.Elbow			R.Elbow			L.Wrist.Lat			R.Wrist.Lat
		X1	Y1	Z1	X2	Y2	Z2	X3	Y3	Z3	X4	Y4	Z4	X5	Y5	Z5	X6	Y6	Z6	X7	Y7	Z7	X8	Y8	Z8	X9	Y9	Z9	X10	Y10	Z10	X11	Y11	Z11	X12	Y12	Z12	X13	Y13	Z13	X14	Y14	Z14	X15	Y15	Z15	X16	Y16	Z16	X17	Y17	Z17	X18	Y18	Z18	X19	Y19	Z19	X20	Y20	Z20	X21	Y21	Z21	X22	Y22	Z22	X23	Y23	Z23	X24	Y24	Z24

191	0.76	0.21546218	-0.033884721	0.015867934	-0.58036104	0.062864751	0.10826028	0.071647582	-0.0020059515	-0.038794628	-0.6243283	0.20728719	0.14681153	0.081238747	0.015544012	0.05875793	-0.57433369	0.20379443	0.062385396	-0.0041260763	-0.0371311	-0.0019519681	-0.66708805	0.24995526	0.085883863	0.11267833	0.40680614	-0.09162439	-0.2151608	0.38551092	0.22365617	0.10810157	0.40958541	0.035030891	-0.20416988	0.35496987	0.098187646	-0.082772734	0.7824396	-0.14257825	-0.15483741	0.7686877	0.22853042	-0.019915793	0.86911499	-0.070178984	-0.039351458	0.85103028	0.17078585	-0.1952712	0.91371001	0.037711742	-0.052220944	1.3090809	-0.12668917	-0.081155418	1.3266107	0.20545647	-0.13522376	1.3675534	0.035917961	-0.20566085	0.98064252	-0.17136621	-0.20267328	0.96567416	0.28311962	-0.14900894	0.73728231	-0.24237839	0.046073323	0.83776358	0.26653804
192	0.764	0.21549039	-0.033938919	0.015832019	-0.5739232	0.065353563	0.10960445	0.071885779	-0.0022195414	-0.038849008	-0.61304204	0.21182973	0.14779796	0.081345967	0.015510249	0.058732216	-0.56312693	0.20745837	0.06328359	-0.0041185894	-0.037058126	-0.0020642713	-0.65445442	0.25605452	0.087244392	0.11628582	0.40591662	-0.091800535	-0.20456201	0.38540132	0.22513088	0.11129922	0.40849271	0.034236884	-0.19145782	0.3539395	0.098530606	-0.076289097	0.78235751	-0.14281596	-0.14816611	0.76839168	0.22807367	-0.013716003	0.86932896	-0.07072819	-0.03349433	0.85117651	0.1701285	-0.18867785	0.91441823	0.037534099	-0.045048957	1.3094622	-0.12678739	-0.07389071	1.326879	0.20537983	-0.12790538	1.3681665	0.035475261	-0.19739643	0.98028352	-0.17193823	-0.19649716	0.96668528	0.28284868	-0.13861282	0.73717231	-0.24232715	0.049428814	0.83452863	0.26655315
193	0.768	0.21547987	-0.033983048	0.015803814	-0.56650588	0.068075667	0.11116287	0.072029605	-0.0024403327	-0.038906833	-0.60151147	0.21615524	0.14873064	0.081407405	0.015516411	0.058638335	-0.55166695	0.21111033	0.064103508	-0.0041554946	-0.037010386	-0.0022098749	-0.64163526	0.26206607	0.088593255	0.11940907	0.40520033	-0.091716804	-0.19341635	0.38535306	0.22624155	0.11398737	0.40775058	0.033467254	-0.17873632	0.35334936	0.098766023	-0.069866843	0.78244056	-0.14295436	-0.14180804	0.76832132	0.22776904	-0.0075157328	0.86963204	-0.071154224	-0.027691955	0.85152762	0.16961527	-0.18227683	0.91536716	0.036695736	-0.03791991	1.3099493	-0.12688312	-0.066804498	1.3272879	0.20531866	-0.1206212	1.3689039	0.034993378	-0.18921358	0.98004346	-0.17245077	-0.19044744	0.96777858	0.28268564	-0.1281385	0.73719343	-0.24223416	0.052754785	0.83138979	0.26657273
194	0.772	0.21544754	-0.03402088	0.015783501	-0.55794884	0.071093316	0.11286116	0.072114022	-0.0026317412	-0.038952658	-0.58974882	0.22033582	0.14961665	0.081453885	0.015542661	0.058522721	-0.53996067	0.21478722	0.064837356	-0.004213122	-0.036970974	-0.0023414021	-0.62865698	0.26787863	0.08985343	0.12206298	0.40466176	-0.091487707	-0.1808635	0.38468976	0.22632429	0.11648152	0.40736477	0.032876585	-0.16605063	0.35307071	0.09881798	-0.063604469	0.78273412	-0.14296226	-0.13583967	0.76846444	0.22763714	-0.0013326699	0.87004225	-0.071482617	-0.021906049	0.85208136	0.1692424	-0.17606864	0.91654889	0.035103864	-0.030831737	1.3105413	-0.12696643	-0.059898984	1.3278465	0.20527025	-0.11350655	1.3697877	0.034714513	-0.18111299	0.97992888	-0.17293036	-0.18463894	0.96896541	0.28268047	-0.11759926	0.73735347	-0.24210771	0.056006512	0.82834002	0.2665998
195	0.776	0.21541516	-0.034052345	0.015767111	-0.5482539	0.07441517	0.11462788	0.072186936	-0.0027688691	-0.038994118	-0.57776894	0.22447628	0.15042862	0.081515856	0.015576195	0.05842162	-0.52801175	0.21854748	0.065439088	-0.0042644025	-0.036921031	-0.0024250121	-0.61560841	0.27334308	0.090954617	0.12453375	0.4042842	-0.091393293	-0.16691655	0.38339067	0.22537325	0.11886761	0.4072437	0.032479915	-0.15340717	0.35302722	0.098680735	-0.057506568	0.78333727	-0.14290795	-0.13020994	0.76882952	0.2276221	0.0048194907	0.87058315	-0.071719174	-0.016144663	0.85283876	0.16897973	-0.16998473	0.91784367	0.033557448	-0.02377028	1.3112447	-0.12702106	-0.053162908	1.3285651	0.20522404	-0.10658752	1.3708202	0.034658087	-0.17308166	0.9799407	-0.17340832	-0.17913687	0.97023909	0.28283714	-0.10699455	0.73766351	-0.24195731	0.059133962	0.82538505	0.26663838
